<?xml version="1.0" encoding="utf-8"?>
<!-- Generator: Adobe Illustrator 24.3.0, SVG Export Plug-In . SVG Version: 6.00 Build 0)  -->
<svg version="1.1" id="Capa_1" xmlns="http://www.w3.org/2000/svg" xmlns:xlink="http://www.w3.org/1999/xlink" x="0px" y="0px"
	 viewBox="0 0 1920 1080" style="enable-background:new 0 0 1920 1080;" xml:space="preserve">
<style type="text/css">
	.st0{clip-path:url(#SVGID_2_);}
	.st1{clip-path:url(#SVGID_4_);fill:#55BA71;}
	.st2{clip-path:url(#SVGID_4_);fill:#262626;}
	.st3{clip-path:url(#SVGID_6_);fill:#2EA761;}
	.st4{clip-path:url(#SVGID_6_);fill:#7CC366;}
	.st5{clip-path:url(#SVGID_6_);fill:#78C045;}
	.st6{clip-path:url(#SVGID_6_);fill:#357D53;}
	.st7{clip-path:url(#SVGID_6_);fill:#52A146;}
	.st8{clip-path:url(#SVGID_6_);fill:#68BE6E;}
	.st9{clip-path:url(#SVGID_6_);fill:#166337;}
</style>
<g>
	<g>
		<defs>
			<rect id="SVGID_1_" x="41.25" y="15.79" width="1920" height="1080"/>
		</defs>
		<clipPath id="SVGID_2_">
			<use xlink:href="#SVGID_1_"  style="overflow:visible;"/>
		</clipPath>
		<g class="st0">
			<defs>
				<rect id="SVGID_3_" x="48.06" y="19.62" width="1906.38" height="1072.34"/>
			</defs>
			<clipPath id="SVGID_4_">
				<use xlink:href="#SVGID_3_"  style="overflow:visible;"/>
			</clipPath>
			<path class="st1" d="M1000.34,267.44c80.88,72.21,145.48,156.07,202.39,249.82c98.51-126.69,194.33-251.57,302.3-373.94
				c1.41,19.18-7.7,25.89-13.25,33.85c-45.88,65.82-87.92,133.86-124.29,205.48c-15.57,30.66-25.88,60.44-8.15,93.31
				c16.61,30.8,5.08,49.16-22.41,68.16c-53.47,36.97-103.93,78.3-155.57,117.92c-8.29,6.36-14.4,15.44-21.88-2.49
				c-75.85-181.64-189.78-340.28-303.14-499.21c-19.18-26.89-19.47-26.86,12.93-32.94c89.82-16.84,179.71-33.28,269.44-50.59
				c12.48-2.41,20.46-1.27,29,9.47c41.77,52.51,80.48,106.89,111.27,166.76c6.81,13.24,5.77,21.45-5.29,31.46
				c-24.47,22.15-44.5,57.62-72.43,65.18c-28.35,7.68-55.72-27.57-84.93-41.45c-30.64-14.57-60.8-30.03-93.48-39.76
				C1016.55,266.59,1010.64,263.25,1000.34,267.44"/>
			<path class="st2" d="M1114.59,47.09C1000.7,70.63,892.1,85.66,782.66,114.37c116.14,161.22,232.31,319.42,319.87,495.49
				c-2.02,1.29-4.04,2.59-6.06,3.88c-42.92-61.7-85.29-123.78-128.9-184.99c-49.3-69.2-101.95-135.8-157.97-199.75
				c-11.45-13.07-22.28-19.18-40.86-15.94c-53.03,9.25-103.85,24.4-155.66,47.81C774.55,356,908.65,476.76,1019.98,622.92
				c-77-65.52-155.61-128.78-239.05-185.89c-4.67-3.2-9.35-6.39-14-9.61c-60.29-41.71-76.95-41.33-141.65,4.46
				c122.88,54.24,238.55,118.41,341.55,206.2c-8.25,5.06-12.16,1.29-15.87-0.91C835.5,568.75,712.72,516.09,587.49,468.85
				c-16.33-6.16-22.75-13.45-22.61-31.92c0.99-123.71,0.53-247.43,0.48-371.15c-0.01-12.15-2.94-23.43,17.26-23.34
				c172.82,0.77,345.65,0.48,518.48,0.6C1103.27,43.04,1105.42,44.28,1114.59,47.09"/>
			<path class="st1" d="M1184.35,1030c-16.98,0-33.97,0.14-50.95-0.1c-4.31-0.06-10.01,1.48-11.73-4.71
				c-1.56-5.65,2.46-9.39,6.81-10.66c18.64-5.44,16.36-20.1,16.29-34.28c-0.19-36.8,0.14-73.59-0.18-110.39
				c-0.1-12.11,5.32-27.89-16.06-28.91c-1.83-0.09-4.71-5.74-4.8-8.88c-0.18-5.68,4.69-7.87,9.61-8.02
				c44.08-1.32,88.85-10.3,131.73,5.95c44.27,16.77,67.8,63.98,60.25,115.98c-6.66,45.88-42.55,79.63-90.05,83.39
				c-16.87,1.34-33.94,0.21-50.92,0.21C1184.35,1029.72,1184.35,1029.86,1184.35,1030 M1275.78,920.69
				c0.67-18.46-7.27-39.92-21.48-59.78c-13.45-18.81-32.01-13.2-48.97-10.62c-18.71,2.84-10.73,19.39-11.03,30.04
				c-0.97,33.89,0.48,67.84-0.7,101.72c-0.59,16.91,6.71,20.77,21.58,20.89C1252.23,1003.24,1275.98,973.86,1275.78,920.69"/>
			<path class="st2" d="M617.67,818.8c59.77,0.63,101.34,47.22,100.63,112.8c-0.67,62.74-41.8,104.89-101.75,104.28
				c-60.12-0.61-101.71-45.53-100.93-109.01C516.39,862.89,558.61,818.18,617.67,818.8 M667.64,935.17
				c-0.05-28.03-4.14-51.99-20.43-71.89c-17.63-21.53-51.87-22.81-65.97-3.2c-21.62,30.08-19.91,99.05,3.07,128.97
				c12.12,15.78,28.18,20.56,47.36,18.52c17.52-1.86,22.17-15.99,27.42-28.68C665.23,964.11,668.32,948.34,667.64,935.17"/>
			<path class="st2" d="M431.85,818.78c5.66,0.32,11.32,0.56,16.96,1.05c42.34,3.69,48.18,11.97,38.81,53.19
				c-1.78,7.83-2.34,14.53-13.05,14.49c-9.85-0.04-16.61-2.14-17.4-13.35c-1.46-20.75-14.42-28.59-33.51-30.63
				c-12.75-1.36-22.81,1.29-27.29,14.14c-4.11,11.78-2.19,23.21,9.08,29.88c15.37,9.09,31.58,16.76,47.48,24.95
				c38.85,20.01,52.54,42.91,45.02,75.46c-6.57,28.47-36.84,48.07-75.14,47.69c-11.21-0.11-22.59-1.62-33.55-4.04
				c-42.43-9.36-45.98-15.02-38.97-57.47c1.24-7.49,0.97-15.45,11.5-16.47c10.05-0.97,15.74,2.79,18.18,13.05
				c5.04,21.16,13.21,38.53,40,39.14c13.76,0.31,24.73-1.03,30.3-14.39c5.41-12.98,1.41-24.77-9.94-32.33
				c-12.48-8.32-25.97-15.2-39.33-22.11c-43.49-22.5-57.84-43.48-50.62-74.77C357.15,837.05,389.09,818.46,431.85,818.78"/>
			<path class="st2" d="M1012.46,822.66c25.48,0,51.02,0.96,76.44-0.34c16.55-0.85,22.42,5.07,20.15,20.93
				c-1.47,10.26-2.73,20.58-3.35,30.91c-0.6,10.07-3.95,15.02-15.36,14.74c-11.81-0.3-13.6-6.5-14.61-16.01
				c-1.07-10.1,3.49-23.1-14.94-24.73c-18.08-1.6-27.37,0.04-26.24,22.35c1.95,38.61,1.1,77.4,0.26,116.09
				c-0.33,15.32,1.52,26.39,20.18,25.84c6.49-0.2,10.78,2.34,10.62,9.8c-0.18,8.57-6.3,7.78-11.87,7.79
				c-28.32,0.04-56.65,0.1-84.97-0.08c-4.25-0.03-9.99,1.79-11.67-4.56c-1.57-5.93,3.19-9.33,7.34-10.15
				c24.69-4.84,22.05-23.27,21.86-41.26c-0.38-35.87,0-71.75-0.2-107.63c-0.05-8.75,3.22-20.59-12.86-18.38
				c-11.87,1.64-28.07-4.47-28.02,17.56c0.02,10.23,3.08,23.55-15.79,23.36c-19.27-0.2-13.91-15.2-15.42-24.26
				c-7.06-42.33-6.4-42.45,36.14-41.68c20.76,0.38,41.53,0.06,62.3,0.06C1012.46,822.9,1012.46,822.78,1012.46,822.66"/>
			<path class="st2" d="M729.31,1021.63c30.4-8.93,28.33-31.64,27.75-54.62c-0.83-33.03-0.02-66.09-0.32-99.14
				c-0.1-11.25,5.06-26.1-15.29-26.13c-5.93-0.01-7.29-5.26-7-10.21c0.39-6.61,5.76-6.41,10.36-6.41
				c46.27-0.08,92.54,0.08,138.81-0.18c9.78-0.05,13.79,3.96,13.01,13.48c-0.85,10.35-1.91,20.7-2.25,31.07
				c-0.33,10.02-3.72,15.45-14.96,15.89c-11.04,0.43-14.29-4.86-16.81-14.34c-3.82-14.34-42.77-28.93-54.7-20.88
				c-2.36,1.59-3.45,6.08-3.81,9.38c-0.62,5.6-0.21,11.31-0.22,16.98c-0.15,45.39-0.14,45.49,45.25,41.68
				c13.5-1.13,26.97-4.39,24.55,17.76c-1.2,10.91-4.29,15.43-15.35,13.78c-5.58-0.84-11.31-0.58-16.96-0.91
				c-37.71-2.24-36.8-2.22-37.88,34.39c-0.52,17.78,2.28,29.27,23,29.09c7.26-0.06,16.8,0.01,14.6,11.63
				c-1.82,9.58-10.59,5.75-16.33,5.83c-30.55,0.41-61.12,0.19-91.68,0.19C731.81,1027.17,730.56,1024.4,729.31,1021.63"/>
			<path class="st1" d="M1581.85,944.39c-2.16-87.64,51.84-139.01,130-123.69c36.41,7.14,46.73,24.75,36.27,60.19
				c-2.87,9.7-7.5,13.63-17.79,13.52c-9.9-0.1-17.61-2.49-17.67-13.09c-0.16-28.32-18.21-33.78-41.1-33.93
				c-23.64-0.16-28.32,19.12-34.28,35.32c-7.91,21.53-9.14,44.12-3.22,66.66c11.3,43.04,40.98,59.54,82.88,46.15
				c7.16-2.29,14.61-3.95,21.4-7.05c8.69-3.97,11.85,0.7,14.65,7.43c2.38,5.72,2.96,10.78-3.18,14.66
				c-68.61,43.33-144.86,28.13-164.82-53.9C1583.94,952.58,1582.9,948.49,1581.85,944.39"/>
		</g>
		<g class="st0">
			<defs>
				<rect id="SVGID_5_" x="41.25" y="15.79" width="1920" height="1080"/>
			</defs>
			<clipPath id="SVGID_6_">
				<use xlink:href="#SVGID_5_"  style="overflow:visible;"/>
			</clipPath>
			<path class="st3" d="M1526.92,861.24c5.89,5.55,0.68,19.47-11.64,31.09c-12.32,11.61-27.08,16.53-32.97,10.97
				c-5.89-5.55-0.68-19.47,11.64-31.09C1506.27,860.6,1521.03,855.69,1526.92,861.24"/>
			<path class="st4" d="M1423.37,958.87c5.89,5.56,0.68,19.47-11.64,31.09c-12.32,11.61-27.08,16.53-32.97,10.97
				c-5.89-5.55-0.68-19.47,11.64-31.09C1402.71,958.22,1417.47,953.31,1423.37,958.87"/>
			<path class="st5" d="M1526.92,1000.92c-5.89,5.55-20.66,0.64-32.98-10.97c-12.32-11.61-17.53-25.53-11.64-31.09
				c5.89-5.55,20.66-0.64,32.97,10.97C1527.6,981.45,1532.81,995.37,1526.92,1000.92"/>
			<path class="st6" d="M1423.37,903.3c-5.89,5.56-20.66,0.64-32.98-10.97c-12.32-11.61-17.53-25.53-11.64-31.09
				s20.66-0.64,32.97,10.97C1424.05,883.83,1429.26,897.75,1423.37,903.3"/>
			<path class="st7" d="M1556.69,930.07c0,9.56-17.19,17.32-38.4,17.32s-38.41-7.75-38.41-17.32s17.2-17.32,38.41-17.32
				S1556.69,920.51,1556.69,930.07"/>
			<path class="st6" d="M1425.7,930.07c0,9.56-17.19,17.32-38.4,17.32s-38.41-7.75-38.41-17.32s17.2-17.32,38.41-17.32
				S1425.7,920.51,1425.7,930.07"/>
			<path class="st8" d="M1453.14,1041.27c-11.05,0-20.01-17.66-20.01-39.44s8.96-39.44,20.01-39.44c11.05,0,20.01,17.66,20.01,39.44
				S1464.19,1041.27,1453.14,1041.27"/>
			<path class="st9" d="M1453.14,898.39c-11.05,0-20.01-17.66-20.01-39.44s8.96-39.44,20.01-39.44c11.05,0,20.01,17.66,20.01,39.44
				S1464.19,898.39,1453.14,898.39"/>
		</g>
	</g>
</g>
</svg>
